<?xml version="1.0" encoding="utf-8"?>
<!-- Generator: Adobe Illustrator 28.0.0, SVG Export Plug-In . SVG Version: 6.00 Build 0)  -->
<svg version="1.1" id="Layer_1" xmlns:mydata="http://www.w3.org/2000/svg"
	 xmlns="http://www.w3.org/2000/svg" xmlns:xlink="http://www.w3.org/1999/xlink" x="0px" y="0px" viewBox="0 0 405.4 198.8"
	 style="enable-background:new 0 0 405.4 198.8;" xml:space="preserve">
<style type="text/css">
	.st0{fill:#FFFFFF;}
</style>
<g>
	<g>
		<g>
			<path class="st0" d="M266.2,59c0.9-12.4-8.8-18.9-14.5-20.6h-0.1c3-2.4,5-5.6,6.1-9c2.2-7.2-0.2-15.4-5.4-20.8
				c-5.5-5.5-13-7.6-20.6-8c-4.3-0.3-8.6-0.4-12.9-0.4c-13.4,0-29.4,5.5-31.2,20.6c-0.4,2.9,1.3,5.6,4,6.6l12.5,4.9
				c-3-1.2-4.6-5.7-4.6-10.1c0-13.4,11.8-20.4,25.6-20.4c3.4,0,6.3,0.5,8.7,1.5v64.4c-1.9-1.2-3.8-3.7-3.8-8.9V9.4
				c0-3.1-2.6-4.9-5.5-4.9c-0.7,0-1.3,0.1-2.1,0.3h-0.2c0.9-0.4-6.2,1.7-9.7,2.8c2.1,0.1,4.5,1.5,5.4,3.1c0.5,1.1,0.5,2.3,0.5,3.6
				v19.1c-0.8-0.4-1.6-0.7-2.4-0.7c-1.2,0-2.2,0.5-2.8,1.6c-0.4,0.4-0.5,0.8-0.7,1.2c-0.8,1.6-1.4,3.3-2.1,5
				c-0.4,0.8-0.6,1.6-0.8,2.4c0-0.2-0.3,1,0,0.4c0.3-0.4,0.4-0.8,0.7-1.3V42c0.4-0.9,1.7-1.4,2.6-1.4c1.6,0,3.4,1.2,4.6,2.2l0.9,0.9
				v16.4c0,4.8,1.5,10.2,7.4,11.4h0.4c0.4,0,0.7,0,1.1-0.1c0.4,0,3.4-1.8,6.4-2.5v3.7c-1.2,0.3-2,1.3-2,2.4c0,0.9,1.3,1.9,2.1,3.3
				c-12.8-0.4-26.4-7.3-26.4-17.5c0-2.9,1.1-5.4,3.7-6.9c-0.3,0.1-0.8,0.4-0.6,0.3c-1,0.5-2.1,1.1-3.1,1.6c-1.3,0.7-2.8,1.4-4.1,2.2
				c-2.4,1.1-4.8,2.7-5.7,5.3c-0.7,1.7-0.6,3.5-0.2,5.3c2.9,11,19,13.7,28.8,13.7C240.2,82.4,264.9,76.3,266.2,59L266.2,59z
				 M235,78.5c0.8-1.5,2.2-2.5,2.2-3.4c0-1.2-0.9-2.2-2-2.4V43.3c11,0.9,20.7,7.3,20.7,19v0.3C255.9,73.9,245.9,78.6,235,78.5
				L235,78.5z M246.4,23.4c0,9.9-5.1,14.8-9.8,17.2c-0.4,0.2-1,0.4-1.4,0.5V4C244.1,8.1,246.4,17.9,246.4,23.4z"/>
			<path class="st0" d="M281.7,69.6h0.4c0.4,0,0.8,0,1.2-0.1c0.6,0,6.8-1.7,10.1-2.8c-5.9,0-7.5-5.7-7.5-10.7V5.2
				c0-3.2-2.6-5.2-5.7-5.2c-0.6,0-1.3,0.1-1.9,0.3c-0.1,0-6.4,1.8-9.9,3.1c2,0.1,4.5,1.5,5.4,3.2c0.5,1.2,0.4,2.5,0.4,3.8v47.1
				C274.4,62.5,276,68.4,281.7,69.6L281.7,69.6z"/>
			<path class="st0" d="M324.4,64.1c1.3-0.4,2.7-0.8,4-1.3c-0.1,0,1.7-0.5,1.7-0.6c0-3.5,0.1-32.2-0.2-33.3
				c-0.6-4.5-5.2-8.5-9.8-8.5c-0.4,0-0.8,0.1-1.2,0.1c-0.5,0.1-23.2,7.3-23.2,7.4v29.6c0,1.3-0.1,2.5,0.1,3.8
				c0.8,4.5,5.2,8.5,9.8,8.5c1.1,0,1.9-0.2,2.9-0.5c-0.6,0.4,10.1-3.1,11.1-3.5c0.4-0.1,0.6-0.2,0.5-0.2
				C321.6,65,323,64.6,324.4,64.1L324.4,64.1z M309.1,25.1c5.1,0,9.4,3.8,9.4,9v30.9c-0.5,0.1-1.2,0.1-1.7,0.1c-5.1,0-9.4-3.8-9.4-9
				V25.1C308,25.1,308.6,25.1,309.1,25.1z"/>
			<path class="st0" d="M332.7,57.4c0,1.3-0.1,2.5,0.1,3.8c0.6,4.4,5.3,8.5,9.8,8.5c1.1,0,1.9-0.2,2.9-0.5c-0.5,0.4,7-2.1,10-3.1
				v19.3c-0.8,0.1-1.7,0.1-2.5,0.1c-5.1,0-7.7-1.9-8.9-6.8c0-0.1-1.8,0.5-1.7,0.4l-8.1,2.7c0.1-0.1-1.7,0.5-1.7,0.5
				c0.3,1.6,0.9,3.1,1.9,4.4c2.1,2.3,4.9,3.1,7.9,3.1c0.8,0,1.7-0.1,2.5-0.2c3.1-0.4,22.1-6.8,22.1-6.8V32.7c0-1.3,0.2-2.6-0.1-3.8
				c-0.6-4.5-5.2-8.5-9.8-8.5c-0.4,0-0.8,0.1-1.2,0.1c-0.5,0.1-1.2,0.3-1.7,0.4c0.7-0.4-10.1,3.1-11,3.6c-0.4,0.1-0.6,0.2-0.5,0.2
				c-1.4,0.4-2.8,0.9-4.1,1.3l-4,1.3c0.1,0-1.7,0.5-1.7,0.6L332.7,57.4z M344.3,56V25.2c0.6-0.1,1.2-0.1,1.7-0.1
				c5.2,0,9.4,3.7,9.4,8.9v30.9c-0.5,0.1-1.2,0.1-1.7,0.1C348.6,65,344.3,61.3,344.3,56z"/>
			<path class="st0" d="M233.7,194.1c0,1.4,2.6,4.7,2.6,4.7s2.6-3.2,2.6-4.7c0-1.2-0.9-2.2-2-2.5v-36.2c0.9-0.3,1.5-0.4,1.6-0.5
				c1.9-0.5,3.4-0.7,4.8-0.7c6.6,0,7.5,5.1,7.5,5.1c0.2-3.4,0.1-10,0-10.5s-0.2-1.1-0.4-1.6c-1.8-3.4-4.9-4.5-8.4-4.5
				c-1.7,0-3.5,0.3-5.2,0.7v-17.7c4.3,0.6,8.6,1.3,13,1.3c4.8,0,10-0.2,11.9-5.3c0.2-0.4,0.2-1.1,0.2-1.6c0-0.5-0.5-7-1.2-10.4
				c0,0-0.4,6-8.4,6c-5.2,0-11-0.7-17-1.7V129c0,0,0.1,0,0.1,0.1v18.7h-4.1v-29.2c0-8.7-19.1-9.6-24.6-9.6c-4.7,0-9.5,0.7-13.4,3.6
				c-4.5,3.2-6.9,9.3-5.6,14.8c1.3,4.7,4.3,6.4,9,6.4c2.1,0,4.2,0,6.3-0.2c0,0,1.3-0.1,1.3-0.2s-0.6-0.1-1.1-0.1h-0.3
				c-0.3-0.1-0.5-0.1-0.9-0.2c-4.1-1.3-5.7-5.6-5.7-9.6c-0.1-7.9,5.4-12.8,11.7-12.8c3.3,0,11.7,2.4,11.7,11.9v20.1
				c-0.9-0.6-2-1.2-3-1.2c-1.3,0-2.2,0.7-2.9,1.7c-0.3,0.4-0.5,0.8-0.7,1.3c-0.8,1.8-1.4,3.6-2.1,5.5c-0.3,0.8-0.5,1.7-0.8,2.5
				c0.1-0.2-0.3,1,0.1,0.5c0.2-0.4,0.4-1,0.6-1.4c0.3-0.9,1.7-1.5,2.6-1.5c2.3,0,4.8,2.2,6.1,4.1v24.1c-5.8-2.6-10.7-5.7-15.2-5.7
				c-2.7,0-5.2,1.5-6.8,4l-5.2,7.9c0,0,2.9-3.5,5.8-3.5c0.4,0,0.8,0,1.2,0.2c8.4,3.3,19.1,10.2,28.6,10.2c1.3,0,2.7-0.6,3.6-1.9
				l3.8-5.4v7.5C234.5,191.9,233.7,193,233.7,194.1L233.7,194.1z M234,181.8c-3.9,0-7.5-0.9-10.7-2.1l8.3-8.7v-18.3h4.1v28.9
				C235.1,181.7,234.5,181.8,234,181.8L234,181.8z"/>
			<path class="st0" d="M283.7,173.1c1.3-0.4,2.7-0.8,4-1.3c-0.1,0,1.7-0.5,1.7-0.6c0-3.5,0.1-32.2-0.2-33.3
				c-0.6-4.5-5.2-8.5-9.8-8.5c-0.4,0-0.8,0.1-1.2,0.1c-0.5,0.1-23.2,7.3-23.2,7.4v29.6c0,1.3-0.1,2.5,0.1,3.8
				c0.8,4.5,5.2,8.5,9.8,8.5c1.1,0,1.9-0.2,2.9-0.5c-0.6,0.4,10.1-3.1,11.1-3.5c0.4-0.1,0.6-0.2,0.5-0.2
				C280.9,174,282.2,173.6,283.7,173.1L283.7,173.1z M268.4,134.1c5.1,0,9.4,3.8,9.4,9v30.9c-0.5,0.1-1.2,0.1-1.7,0.1
				c-5.1,0-9.4-3.8-9.4-9v-30.9C267.2,134.1,267.8,134.1,268.4,134.1z"/>
			<path class="st0" d="M308.9,133.1c-0.6-2.6-3.1-3.6-5.5-3.6c-0.6,0-1.2,0-1.8,0.2c-0.1,0-6.4,1.9-9.9,3.1c2,0.1,4.5,1.6,5.4,3.3
				c0.4,0.8,0.4,1.8,0.4,2.8v27.6c0,5.1,1.6,11,7.4,12.2h0.4c0.4,0,0.8,0,1.2-0.1c0.6,0,6.8-1.7,10.1-2.8c-5.9,0-7.5-5.7-7.5-10.7
				v-30.9c0.5-0.1,1.2-0.1,1.7-0.1c5.1,0,9.4,3.8,9.4,9c0,2.6-0.6,3.4-1.6,4.2l13.2-5.6c0-1.3,0.1-2.6-0.1-3.8
				c-0.4-1.9-1.3-3.6-2.5-5c-1.9-2.1-4.5-3.5-7.4-3.5c-0.4,0-0.8,0.1-1.2,0.1c-0.5,0.1-1.1,0.3-1.6,0.4
				C319.7,129.6,311.8,132.1,308.9,133.1L308.9,133.1z"/>
			<path class="st0" d="M334.4,166.4c0,1.3-0.1,2.5,0.1,3.8c0.6,4.4,5.3,8.5,9.8,8.5c1.1,0,1.9-0.2,2.9-0.5c-0.5,0.4,7-2.1,10-3.1
				v19.3c-0.8,0.1-1.7,0.1-2.5,0.1c-5.1,0-7.7-1.9-8.9-6.8c0-0.1-1.8,0.5-1.7,0.4l-8.1,2.7c0.1-0.1-1.7,0.5-1.7,0.5
				c0.3,1.6,0.9,3.1,1.9,4.4c2.1,2.3,4.9,3.1,7.9,3.1c0.8,0,1.7-0.1,2.5-0.2c3.1-0.4,22.1-6.8,22.1-6.8v-50.1c0-1.3,0.2-2.6-0.1-3.8
				c-0.6-4.5-5.2-8.5-9.8-8.5c-0.4,0-0.8,0.1-1.2,0.1c-0.5,0.1-1.2,0.3-1.7,0.4c0.7-0.4-10.1,3.1-11,3.6c-0.4,0.1-0.6,0.2-0.5,0.2
				c-1.4,0.4-2.8,0.9-4.1,1.3l-4,1.3c0.1,0-1.7,0.5-1.7,0.6L334.4,166.4z M346,165v-30.8c0.6-0.1,1.2-0.1,1.7-0.1
				c5.2,0,9.4,3.7,9.4,8.9v30.9c-0.5,0.1-1.2,0.1-1.7,0.1C350.3,174,346,170.3,346,165z"/>
			<path class="st0" d="M392.1,174c-5.1,0-9.4-3.8-9.4-9v-11.1l21.1-11.4c1-0.4,1.6-1.5,1.6-2.6c0-0.7,0-1.3-0.2-2
				c-0.6-4.5-5.2-8.5-9.8-8.5c-0.4,0-0.8,0.1-1.2,0.1c-0.5,0.1-1.1,0.3-1.7,0.4c0.7-0.4-21.5,6.9-21.5,7v29.6c0,1.3-0.1,2.5,0.1,3.8
				c0.8,4.5,5.2,8.5,9.8,8.5c1.1,0,1.9-0.2,2.9-0.5c-0.6,0.4,21.6-6.8,21.6-6.9v-1.2l-11.6,3.9C393.2,174,392.6,174,392.1,174
				L392.1,174z M382.6,152.7v-18.6c0.5-0.1,1.2-0.1,1.7-0.1c5.1,0,9.4,3.8,9.4,9C393.8,146.3,386.5,150.5,382.6,152.7L382.6,152.7z"
				/>
		</g>
		<g>
			<path class="st0" d="M122.2,133.2c-8.5-7.8-23.1-12.6-44.6-14.6c16.2-14.7,30.5-35.8,30.5-64.3c0-22.5-10-35.1-18.4-41.7
				C64.4-7.3,23.3,2,18.8,3.2L9.7,5.4l-1.5,9.2C7.9,16,2.6,48.9,0.7,85.8c-2.8,53.4,3.2,86.7,18.1,101.6
				c8.3,8.3,21.9,11.4,36.3,11.4c15.9,0,32.8-3.8,44.5-8.7c27.5-11.4,31.6-28.1,31.6-37C131.3,145.5,128.2,138.6,122.2,133.2
				L122.2,133.2z M29,87.5c1.2-23.6,4-46,5.7-58.3c11.4-1.4,28.2-1.5,37.5,5.8c1.9,1.5,7.5,5.9,7.5,19.3c0,35.7-37,56.1-51.3,62.7
				C28.3,108.6,28.4,98.8,29,87.5z M90.4,163.2c-9.1,4.1-21.1,6.7-32.2,7.1c-11.6,0.4-18-1.8-19.3-3c-1.7-1.7-5.3-6.8-7.8-20.6
				c5.3-0.4,19.3-1.1,34.2-0.5c24.8,1.1,35,5.4,37.5,7.6C102,155.8,98.4,159.6,90.4,163.2L90.4,163.2z M71.3,51.5l3.3-0.3
				c-0.5-5.4-2.9-9.7-7-12.9c-10.6-8.1-29.1-5.1-29.9-5l0.5,3.2c0.2,0,18-2.9,27.4,4.3C68.9,43.5,70.9,47,71.3,51.5L71.3,51.5z"/>
		</g>
		<path class="st0" d="M153.8,198.8V0h2v198.8H153.8z"/>
	</g>
</g>
</svg>
