<?xml version="1.0" encoding="utf-8"?>
<!-- Generator: Adobe Illustrator 28.0.0, SVG Export Plug-In . SVG Version: 6.00 Build 0)  -->
<svg version="1.1" id="Layer_1" xmlns:mydata="http://www.w3.org/2000/svg"
	 xmlns="http://www.w3.org/2000/svg" xmlns:xlink="http://www.w3.org/1999/xlink" x="0px" y="0px" viewBox="0 0 131.2 198.8"
	 style="enable-background:new 0 0 131.2 198.8;" xml:space="preserve">
<style type="text/css">
	.st0{fill:#16A34A;}
</style>
<g>
	<path class="st0" d="M122.2,133.2c-8.5-7.8-23.1-12.6-44.6-14.6c16.2-14.7,30.5-35.8,30.5-64.3c0-22.5-10-35.1-18.4-41.7
		C64.4-7.3,23.3,2,18.8,3.2L9.7,5.4l-1.5,9.2C7.9,16,2.6,48.9,0.7,85.8c-2.8,53.4,3.2,86.7,18.1,101.6c8.3,8.3,21.9,11.4,36.3,11.4
		c15.9,0,32.8-3.8,44.5-8.7c27.5-11.4,31.6-28.1,31.6-37C131.3,145.5,128.2,138.6,122.2,133.2L122.2,133.2z M29,87.5
		c1.2-23.6,4-46,5.7-58.3c11.4-1.4,28.2-1.5,37.5,5.8c1.9,1.5,7.5,5.9,7.5,19.3c0,35.7-37,56.1-51.3,62.7
		C28.3,108.6,28.4,98.8,29,87.5z M90.4,163.2c-9.1,4.1-21.1,6.7-32.2,7.1c-11.6,0.4-18-1.8-19.3-3c-1.7-1.7-5.3-6.8-7.8-20.6
		c5.3-0.4,19.3-1.1,34.2-0.5c24.8,1.1,35,5.4,37.5,7.6C102,155.8,98.4,159.6,90.4,163.2L90.4,163.2z M71.3,51.5l3.3-0.3
		c-0.5-5.4-2.9-9.7-7-12.9c-10.6-8.1-29.1-5.1-29.9-5l0.5,3.2c0.2,0,18-2.9,27.4,4.3C68.9,43.5,70.9,47,71.3,51.5L71.3,51.5z"/>
</g>
</svg>
