<?xml version="1.0" encoding="utf-8"?>
<!-- Generator: Adobe Illustrator 27.6.1, SVG Export Plug-In . SVG Version: 6.00 Build 0)  -->
<svg version="1.1" id="Layer_1" xmlns:mydata="http://www.w3.org/2000/svg"
	 xmlns="http://www.w3.org/2000/svg" xmlns:xlink="http://www.w3.org/1999/xlink" x="0px" y="0px" viewBox="0 0 190.6 198.8"
	 style="enable-background:new 0 0 190.6 198.8;" xml:space="preserve">
<style type="text/css">
	.st0{fill:#2563EB;}
</style>
<path class="st0" d="M190.5,142.4c2.2-30-21.3-45.8-35.1-49.9h-0.2c7.3-5.8,12.1-13.6,14.8-21.8c5.3-17.4-0.5-37.3-13.1-50.4
	C143.5,7,125.3,1.9,106.9,1C96.5,0.2,86.1,0,75.7,0C43.2,0,4.5,13.3,0.1,49.9c-1,7,3.1,13.6,9.7,16l30.3,11.9
	C32.8,74.8,29,63.9,29,53.3c0-32.4,28.6-49.4,62-49.4c8.2,0,15.3,1.2,21.1,3.6v155.9c-4.6-2.9-9.2-9-9.2-21.6V22.3
	c0-7.5-6.3-11.9-13.3-11.9c-1.7,0-3.1,0.2-5.1,0.7h-0.5c2.2-1-15,4.1-23.5,6.8c5.1,0.2,10.9,3.6,13.1,7.5c1.2,2.7,1.2,5.6,1.2,8.7
	v46.2c-1.9-1-3.9-1.7-5.8-1.7c-2.9,0-5.3,1.2-6.8,3.9c-1,1-1.2,1.9-1.7,2.9c-1.9,3.9-3.4,8-5.1,12.1c-1,1.9-1.5,3.9-1.9,5.8
	c0-0.5-0.7,2.4,0,1c0.7-1,1-1.9,1.7-3.1v0c1-2.2,4.1-3.4,6.3-3.4c3.9,0,8.2,2.9,11.1,5.3l2.2,2.2V145c0,11.6,3.6,24.7,17.9,27.6h1
	c1,0,1.7,0,2.7-0.2c1,0,8.2-4.4,15.5-6.1v9c-2.9,0.7-4.8,3.1-4.8,5.8c0,2.2,3.1,4.6,5.1,8c-31-1-63.9-17.7-63.9-42.4
	c0-7,2.7-13.1,9-16.7c-0.7,0.2-1.9,1-1.5,0.7c-2.4,1.2-5.1,2.7-7.5,3.9c-3.1,1.7-6.8,3.4-9.9,5.3c-5.8,2.7-11.6,6.5-13.8,12.8
	c-1.7,4.1-1.5,8.5-0.5,12.8c7,26.6,46,33.2,69.7,33.2C127.5,199,187.3,184.3,190.5,142.4L190.5,142.4z M114.9,189.6
	c1.9-3.6,5.3-6.1,5.3-8.2c0-2.9-2.2-5.3-4.8-5.8v-71.2c26.6,2.2,50.1,17.7,50.1,46v0.7C165.5,178.5,141.3,189.8,114.9,189.6
	L114.9,189.6z M142.5,56.2c0,24-12.3,35.8-23.7,41.6c-1,0.5-2.4,1-3.4,1.2V9.2C136.9,19.1,142.5,42.9,142.5,56.2z"/>
</svg>
